# Blender v2.78 (sub 0) OBJ File: 'card.blend'
# www.blender.org
mtllib card.mtl
o card_Cube.001
v -1.963048 -2.075117 4.400149
v -2.166741 -2.286697 4.106454
v -2.107081 -2.224726 4.314127
v -2.202761 -2.252019 4.106454
v -1.999069 -2.040439 4.400149
v -2.143101 -2.190049 4.314127
v -2.166741 -2.286697 -4.106454
v -1.963048 -2.075117 -4.400149
v -2.107081 -2.224726 -4.314127
v -1.999069 -2.040439 -4.400149
v -2.202761 -2.252019 -4.106454
v -2.143101 -2.190049 -4.314127
v 2.202761 2.252019 4.106454
v 1.999069 2.040439 4.400149
v 2.143101 2.190049 4.314127
v 1.963048 2.075117 4.400149
v 2.166741 2.286697 4.106454
v 2.107081 2.224726 4.314127
v 1.999069 2.040439 -4.400149
v 2.202761 2.252019 -4.106454
v 2.143101 2.190049 -4.314127
v 2.166741 2.286697 -4.106454
v 1.963048 2.075117 -4.400149
v 2.107081 2.224726 -4.314127
vn 0.0000 0.0000 1.0000
vn 0.6936 0.7204 0.0000
vn -0.7204 0.6935 0.0000
vn -0.6936 -0.7204 0.0000
vn -0.0000 0.0000 -1.0000
vn -0.2654 -0.2757 0.9239
vn -0.6408 -0.6656 0.3827
vn -0.2654 -0.2757 -0.9239
vn -0.6408 -0.6656 -0.3827
vn 0.6408 0.6656 -0.3827
vn 0.2654 0.2757 -0.9239
vn 0.2654 0.2757 0.9239
vn 0.6408 0.6656 0.3827
vn 0.7204 -0.6935 0.0000
usemtl white
s off
f 14//1 16//1 5//1 1//1
f 20//2 22//2 17//2 13//2
f 22//3 24//3 23//3 10//3 12//3 11//3 4//3 6//3 5//3 16//3 18//3 17//3
f 2//4 4//4 11//4 7//4
f 8//5 10//5 23//5 19//5
f 1//6 5//6 6//6 3//6
f 3//7 6//7 4//7 2//7
f 10//8 8//8 9//8 12//8
f 12//9 9//9 7//9 11//9
f 22//10 20//10 21//10 24//10
f 24//11 21//11 19//11 23//11
f 16//12 14//12 15//12 18//12
f 18//13 15//13 13//13 17//13
usemtl bg
f 7//14 9//14 8//14 19//14 21//14 20//14 13//14 15//14 14//14 1//14 3//14 2//14
