# This file uses centimeters as units for non-parametric coordinates.

mtllib Single_Dice_OBJ.mtl
g default
v -1.726843 0.091928 1.575278
v -1.662784 0.027870 1.575278
v -1.575278 0.004423 1.575278
v -1.575278 0.027870 1.662784
v -1.575278 0.091928 1.726843
v -1.575278 0.179434 1.750290
v -1.662784 0.179434 1.726843
v -1.726843 0.179434 1.662784
v -1.750290 0.179434 1.575278
v 1.662784 0.027870 1.575278
v 1.726843 0.091928 1.575278
v 1.750290 0.179434 1.575278
v 1.726843 0.179434 1.662784
v 1.662784 0.179434 1.726843
v 1.575278 0.179434 1.750290
v 1.575278 0.091928 1.726843
v 1.575278 0.027870 1.662784
v 1.575278 0.004423 1.575278
v -1.662784 3.481555 1.575278
v -1.726843 3.417496 1.575278
v -1.750290 3.329991 1.575278
v -1.726843 3.329991 1.662784
v -1.662784 3.329991 1.726843
v -1.575278 3.329991 1.750290
v -1.575278 3.417496 1.726843
v -1.575278 3.481555 1.662784
v -1.575278 3.505002 1.575278
v 1.726843 3.417496 1.575278
v 1.662784 3.481555 1.575278
v 1.575278 3.505002 1.575278
v 1.575278 3.481555 1.662784
v 1.575278 3.417496 1.726843
v 1.575278 3.329991 1.750290
v 1.662784 3.329991 1.726843
v 1.726843 3.329991 1.662784
v 1.750290 3.329991 1.575278
v -1.662784 3.329991 -1.726843
v -1.726843 3.329991 -1.662784
v -1.750290 3.329991 -1.575278
v -1.726843 3.417496 -1.575278
v -1.662784 3.481555 -1.575278
v -1.575278 3.505002 -1.575278
v -1.575278 3.481555 -1.662784
v -1.575278 3.417496 -1.726843
v -1.575278 3.329991 -1.750290
v 1.726843 3.329991 -1.662784
v 1.662784 3.329991 -1.726843
v 1.575278 3.329991 -1.750290
v 1.575278 3.417496 -1.726843
v 1.575278 3.481555 -1.662784
v 1.575278 3.505002 -1.575278
v 1.662784 3.481555 -1.575278
v 1.726843 3.417496 -1.575278
v 1.750290 3.329991 -1.575278
v -1.662784 0.027870 -1.575278
v -1.726843 0.091928 -1.575278
v -1.750290 0.179434 -1.575278
v -1.726843 0.179434 -1.662784
v -1.662784 0.179434 -1.726843
v -1.575278 0.179434 -1.750290
v -1.575278 0.091928 -1.726843
v -1.575278 0.027870 -1.662784
v -1.575278 0.004423 -1.575278
v 1.726843 0.091928 -1.575278
v 1.662784 0.027870 -1.575278
v 1.575278 0.004423 -1.575278
v 1.575278 0.027870 -1.662784
v 1.575278 0.091928 -1.726843
v 1.575278 0.179434 -1.750290
v 1.662784 0.179434 -1.726843
v 1.726843 0.179434 -1.662784
v 1.750290 0.179434 -1.575278
v -1.713682 0.103814 1.650898
v -1.650898 0.041031 1.650898
v -1.650898 0.103814 1.713682
v 1.650898 0.041031 1.650898
v 1.713682 0.103814 1.650898
v 1.650898 0.103814 1.713682
v -1.650898 3.468394 1.650898
v -1.713682 3.405610 1.650898
v -1.650898 3.405610 1.713682
v 1.713682 3.405610 1.650898
v 1.650898 3.468394 1.650898
v 1.650898 3.405610 1.713682
v -1.650898 3.405610 -1.713682
v -1.713682 3.405610 -1.650898
v -1.650898 3.468394 -1.650898
v 1.713682 3.405610 -1.650898
v 1.650898 3.405610 -1.713682
v 1.650898 3.468394 -1.650898
v -1.650898 0.041031 -1.650898
v -1.713682 0.103814 -1.650898
v -1.650898 0.103814 -1.713682
v 1.713682 0.103814 -1.650898
v 1.650898 0.041031 -1.650898
v 1.650898 0.103814 -1.713682
vt 0.387545 0.986686
vt 0.412753 0.018713
vt 0.622407 0.987826
vt 0.670405 0.024036
vt 0.415110 0.242082
vt 0.637774 0.250143
vt 0.656476 0.252931
vt 0.163970 0.025793
vt 0.405335 0.489565
vt 0.632400 0.496667
vt 0.879598 0.275259
vt 0.901435 0.044882
vt 0.623743 0.763839
vt 0.398850 0.736220
vt 0.624432 0.744280
vt 0.650210 0.022545
vt 0.413931 0.261328
vt 0.637785 0.269300
vt 0.404778 0.508806
vt 0.631809 0.516018
vt 0.398459 0.755334
vt 0.392389 0.018784
vt 0.396380 0.244323
vt 0.168985 0.256000
vt 0.374409 0.985576
vt 0.392610 0.012227
vt 0.380977 0.986053
vt 0.412089 0.005610
vt 0.387104 0.993215
vt 0.412600 0.012163
vt 0.405959 0.018834
vt 0.399177 0.018792
vt 0.628993 0.987551
vt 0.670509 0.017463
vt 0.635551 0.987404
vt 0.663674 0.023578
vt 0.656932 0.023181
vt 0.650700 0.016040
vt 0.622547 0.994390
vt 0.651491 0.009562
vt 0.407413 0.260513
vt 0.397248 0.250868
vt 0.400991 0.259285
vt 0.402614 0.243603
vt 0.408842 0.242651
vt 0.414907 0.248513
vt 0.414513 0.254927
vt 0.650914 0.268027
vt 0.655289 0.259421
vt 0.644366 0.268903
vt 0.637613 0.262900
vt 0.637585 0.256512
vt 0.644043 0.250941
vt 0.650239 0.252042
vt 0.398252 0.508066
vt 0.162437 0.256356
vt 0.391815 0.506923
vt 0.392191 0.490526
vt 0.169346 0.262548
vt 0.398751 0.489811
vt 0.405333 0.495988
vt 0.405162 0.502405
vt 0.644938 0.514876
vt 0.886110 0.276003
vt 0.638388 0.515681
vt 0.631819 0.509558
vt 0.632002 0.503105
vt 0.638932 0.497340
vt 0.878879 0.281790
vt 0.645380 0.498412
vt 0.391987 0.754290
vt 0.163787 0.019227
vt 0.385615 0.752797
vt 0.385726 0.737123
vt 0.157414 0.025909
vt 0.392281 0.736444
vt 0.398920 0.742604
vt 0.398803 0.748977
vt 0.636753 0.761924
vt 0.901975 0.038346
vt 0.630274 0.763123
vt 0.623766 0.757305
vt 0.623983 0.750784
vt 0.630956 0.744914
vt 0.907976 0.045392
vt 0.637405 0.745933
vt 0.399444 0.012903
vt 0.374460 0.991340
vt 0.405270 0.007306
vt 0.381092 0.991717
vt 0.406649 0.013356
vt 0.658245 0.011507
vt 0.628586 0.993177
vt 0.663660 0.017700
vt 0.635245 0.993208
vt 0.656565 0.017640
vt 0.409121 0.254658
vt 0.403313 0.250575
vt 0.409565 0.248243
vt 0.649110 0.259139
vt 0.643123 0.262883
vt 0.642926 0.256435
vt 0.399786 0.502285
vt 0.393955 0.498770
vt 0.163592 0.262018
vt 0.399878 0.495733
vt 0.643205 0.506635
vt 0.884641 0.281587
vt 0.637272 0.509754
vt 0.637381 0.503171
vt 0.393477 0.748714
vt 0.387658 0.745091
vt 0.158116 0.020193
vt 0.393507 0.742267
vt 0.635089 0.754008
vt 0.907596 0.039637
vt 0.629170 0.757324
vt 0.629326 0.750747
vn -0.007192 -0.999948 0.007192
vn -0.499913 -0.866058 0.005447
vn -0.499913 -0.866058 -0.005447
vn -0.007192 -0.999948 -0.007192
vn -0.866058 -0.499914 0.005447
vn -0.866058 -0.499914 -0.005447
vn -0.999948 -0.007192 0.007192
vn -0.999948 -0.007192 -0.007192
vn -0.007192 -0.007192 0.999948
vn -0.005447 -0.499914 0.866058
vn 0.005447 -0.499914 0.866058
vn 0.007192 -0.007192 0.999948
vn -0.005447 -0.866058 0.499913
vn 0.005447 -0.866058 0.499913
vn 0.007192 -0.999948 0.007192
vn -0.866058 -0.005447 0.499913
vn -0.866058 0.005447 0.499913
vn -0.999948 0.007192 0.007192
vn -0.499914 -0.005447 0.866058
vn -0.499914 0.005447 0.866058
vn -0.007192 0.007192 0.999948
vn 0.999948 -0.007192 0.007192
vn 0.866058 -0.499914 0.005447
vn 0.866058 -0.499914 -0.005447
vn 0.999948 -0.007192 -0.007192
vn 0.499913 -0.866058 0.005447
vn 0.499913 -0.866058 -0.005447
vn 0.007192 -0.999948 -0.007192
vn 0.499914 -0.005447 0.866058
vn 0.499914 0.005447 0.866058
vn 0.007192 0.007192 0.999948
vn 0.866058 -0.005447 0.499913
vn 0.866058 0.005447 0.499913
vn 0.999948 0.007192 0.007192
vn -0.866058 0.499913 0.005447
vn -0.866058 0.499913 -0.005447
vn -0.999948 0.007192 -0.007192
vn -0.499915 0.866057 0.005447
vn -0.499915 0.866057 -0.005447
vn -0.007192 0.999948 0.007192
vn -0.007192 0.999948 -0.007192
vn -0.005447 0.866057 0.499916
vn 0.005447 0.866057 0.499916
vn 0.007192 0.999948 0.007192
vn -0.005447 0.499913 0.866059
vn 0.005447 0.499913 0.866059
vn 0.499915 0.866057 0.005447
vn 0.499915 0.866057 -0.005447
vn 0.007192 0.999948 -0.007192
vn 0.866058 0.499913 0.005447
vn 0.866058 0.499913 -0.005447
vn 0.999948 0.007192 -0.007192
vn -0.866058 0.005447 -0.499913
vn -0.866058 -0.005447 -0.499913
vn -0.499914 0.005447 -0.866058
vn -0.499914 -0.005447 -0.866058
vn -0.007192 0.007192 -0.999948
vn -0.007192 -0.007192 -0.999948
vn -0.005447 0.499913 -0.866059
vn 0.005447 0.499913 -0.866059
vn 0.007192 0.007192 -0.999948
vn -0.005447 0.866057 -0.499916
vn 0.005447 0.866057 -0.499916
vn 0.499914 0.005447 -0.866058
vn 0.499914 -0.005447 -0.866058
vn 0.007192 -0.007192 -0.999948
vn 0.866058 0.005447 -0.499913
vn 0.866058 -0.005447 -0.499913
vn -0.005447 -0.866058 -0.499913
vn 0.005447 -0.866058 -0.499913
vn -0.005447 -0.499914 -0.866058
vn 0.005447 -0.499914 -0.866058
vn -0.809118 -0.415529 0.415528
vn -0.415528 -0.809118 0.415529
vn -0.415528 -0.415528 0.809118
vn 0.415528 -0.809118 0.415528
vn 0.809118 -0.415529 0.415528
vn 0.415529 -0.415528 0.809118
vn -0.415530 0.809116 0.415531
vn -0.809118 0.415529 0.415529
vn -0.415529 0.415529 0.809118
vn 0.809118 0.415529 0.415529
vn 0.415530 0.809116 0.415531
vn 0.415529 0.415529 0.809118
vn -0.415529 0.415529 -0.809118
vn -0.809118 0.415529 -0.415529
vn -0.415530 0.809116 -0.415531
vn 0.809118 0.415529 -0.415529
vn 0.415529 0.415529 -0.809118
vn 0.415530 0.809116 -0.415531
vn -0.415528 -0.809118 -0.415528
vn -0.809118 -0.415529 -0.415528
vn -0.415529 -0.415528 -0.809118
vn 0.809118 -0.415529 -0.415528
vn 0.415528 -0.809118 -0.415529
vn 0.415528 -0.415528 -0.809118
s 1
g pCube1
usemtl pCube1SG
f 3/1/1 2/27/2 55/71/3 63/21/4
f 2/27/2 1/25/5 56/73/6 55/71/3
f 1/26/5 9/22/7 57/8/8 56/72/6
f 6/2/9 5/30/10 16/38/11 15/16/12
f 5/30/10 4/28/13 17/40/14 16/38/11
f 4/29/13 3/1/1 18/3/15 17/39/14
f 9/22/7 8/32/16 22/44/17 21/23/18
f 8/32/16 7/31/19 23/45/20 22/44/17
f 7/31/19 6/2/9 24/5/21 23/45/20
f 12/4/22 11/34/23 64/80/24 72/12/25
f 11/35/23 10/33/26 65/81/27 64/79/24
f 10/33/26 18/3/15 66/13/28 65/81/27
f 15/16/12 14/37/29 34/53/30 33/6/31
f 14/37/29 13/36/32 35/54/33 34/53/30
f 13/36/32 12/4/22 36/7/34 35/54/33
f 21/23/18 20/42/35 40/59/36 39/24/37
f 20/43/35 19/41/38 41/60/39 40/58/36
f 19/41/38 27/17/40 42/9/41 41/60/39
f 27/17/40 26/47/42 31/51/43 30/18/44
f 26/47/42 25/46/45 32/52/46 31/51/43
f 25/46/45 24/5/21 33/6/31 32/52/46
f 30/18/44 29/50/47 52/68/48 51/10/49
f 29/50/47 28/48/50 53/70/51 52/68/48
f 28/49/50 36/7/34 54/11/52 53/69/51
f 39/24/37 38/56/53 58/75/54 57/8/8
f 38/57/53 37/55/55 59/76/56 58/74/54
f 37/55/55 45/19/57 60/14/58 59/76/56
f 45/19/57 44/62/59 49/66/60 48/20/61
f 44/62/59 43/61/62 50/67/63 49/66/60
f 43/61/62 42/9/41 51/10/49 50/67/63
f 48/20/61 47/65/64 70/84/65 69/15/66
f 47/65/64 46/63/67 71/86/68 70/84/65
f 46/64/67 54/11/52 72/12/25 71/85/68
f 63/21/4 62/78/69 67/82/70 66/13/28
f 62/78/69 61/77/71 68/83/72 67/82/70
f 61/77/71 60/14/58 69/15/66 68/83/72
f 6/2/9 15/16/12 33/6/31 24/5/21
f 27/17/40 30/18/44 51/10/49 42/9/41
f 45/19/57 48/20/61 69/15/66 60/14/58
f 63/21/4 66/13/28 18/3/15 3/1/1
f 12/4/22 72/12/25 54/11/52 36/7/34
f 57/8/8 9/22/7 21/23/18 39/24/37
f 8/32/16 9/22/7 1/26/5 73/87/73
f 73/88/73 1/25/5 2/27/2 74/90/74
f 2/27/2 3/1/1 4/29/13 74/90/74
f 74/89/74 4/28/13 5/30/10 75/91/75
f 5/30/10 6/2/9 7/31/19 75/91/75
f 75/91/75 7/31/19 8/32/16 73/87/73
f 73/87/73 74/89/74 75/91/75
f 17/39/14 18/3/15 10/33/26 76/93/76
f 76/93/76 10/33/26 11/35/23 77/95/77
f 11/34/23 12/4/22 13/36/32 77/94/77
f 77/94/77 13/36/32 14/37/29 78/96/78
f 14/37/29 15/16/12 16/38/11 78/96/78
f 78/96/78 16/38/11 17/40/14 76/92/76
f 76/92/76 77/94/77 78/96/78
f 26/47/42 27/17/40 19/41/38 79/97/79
f 79/97/79 19/41/38 20/43/35 80/98/80
f 20/42/35 21/23/18 22/44/17 80/98/80
f 80/98/80 22/44/17 23/45/20 81/99/81
f 23/45/20 24/5/21 25/46/45 81/99/81
f 81/99/81 25/46/45 26/47/42 79/97/79
f 79/97/79 80/98/80 81/99/81
f 35/54/33 36/7/34 28/49/50 82/100/82
f 82/100/82 28/48/50 29/50/47 83/101/83
f 29/50/47 30/18/44 31/51/43 83/101/83
f 83/101/83 31/51/43 32/52/46 84/102/84
f 32/52/46 33/6/31 34/53/30 84/102/84
f 84/102/84 34/53/30 35/54/33 82/100/82
f 82/100/82 83/101/83 84/102/84
f 44/62/59 45/19/57 37/55/55 85/103/85
f 85/103/85 37/55/55 38/57/53 86/104/86
f 38/56/53 39/24/37 40/59/36 86/105/86
f 86/104/86 40/58/36 41/60/39 87/106/87
f 41/60/39 42/9/41 43/61/62 87/106/87
f 87/106/87 43/61/62 44/62/59 85/103/85
f 85/103/85 86/104/86 87/106/87
f 53/69/51 54/11/52 46/64/67 88/108/88
f 88/107/88 46/63/67 47/65/64 89/109/89
f 47/65/64 48/20/61 49/66/60 89/109/89
f 89/109/89 49/66/60 50/67/63 90/110/90
f 50/67/63 51/10/49 52/68/48 90/110/90
f 90/110/90 52/68/48 53/70/51 88/107/88
f 88/107/88 89/109/89 90/110/90
f 62/78/69 63/21/4 55/71/3 91/111/91
f 91/111/91 55/71/3 56/73/6 92/112/92
f 56/72/6 57/8/8 58/75/54 92/113/92
f 92/112/92 58/74/54 59/76/56 93/114/93
f 59/76/56 60/14/58 61/77/71 93/114/93
f 93/114/93 61/77/71 62/78/69 91/111/91
f 91/111/91 92/112/92 93/114/93
f 71/85/68 72/12/25 64/80/24 94/116/94
f 94/115/94 64/79/24 65/81/27 95/117/95
f 65/81/27 66/13/28 67/82/70 95/117/95
f 95/117/95 67/82/70 68/83/72 96/118/96
f 68/83/72 69/15/66 70/84/65 96/118/96
f 96/118/96 70/84/65 71/86/68 94/115/94
f 94/115/94 95/117/95 96/118/96
